<svg viewBox="0 0 135 70" fill="none" xmlns="http://www.w3.org/2000/svg"><path fill-rule="evenodd" clip-rule="evenodd" d="M67 0l-4.738 13.764 2.726-1.42V25.3h-7.031l-1.95-7.33 2.839.423L49 7.283l5.862 22.038h10.126v6.466l-2.447 2.445 2.447 2.444V51l4.024-4.013v-6.31l2.448-2.445-2.448-2.445v-6.466h10.126L85 7.283l-9.846 11.11 2.838-.422-1.949 7.329h-7.03V12.344l2.724 1.42L67 0z" fill="#ADACAC"/><path fill-rule="evenodd" clip-rule="evenodd" d="M76.532 18.015l2.215-.327-2.265 8.455h-7.984v-14.29l2.337 1.21L67 2l-3.835 11.062 2.337-1.208v14.289h-7.984l-2.265-8.455 2.215.327L50 9.65l5.215 19.465h10.287v7.18l-2.24 2.221 2.24 2.222V50l2.996-2.974v-6.289l2.24-2.222-2.24-2.222v-7.18h10.287L84 9.65l-7.468 8.366z" fill="#fff"/><path fill-rule="evenodd" clip-rule="evenodd" d="M73.278 37.286c-.157 0-.256.084-.256.307v.335h-.468v-.303c0-.5.252-.785.738-.785s.738.285.738.785c0 .981-.986 1.347-.986 1.86 0 .023 0 .045.005.067h.935v.446h-1.43v-.383c0-.92.98-1.071.98-1.972 0-.281-.098-.357-.256-.357zM74.88 39.28c0 .223.098.308.255.308.158 0 .257-.085.257-.308v-1.686c0-.224-.1-.308-.257-.308s-.256.084-.256.308v1.686zm-.496-1.655c0-.5.266-.785.751-.785.486 0 .752.285.752.785v1.624c0 .5-.266.785-.752.785-.485 0-.75-.286-.75-.785v-1.624zM76.152 37.268c.382 0 .468-.183.544-.392h.333v3.122h-.495v-2.382h-.382v-.348zM78.09 38.718v.562c0 .223.1.303.257.303s.256-.08.256-.303v-.562c0-.223-.099-.308-.256-.308-.158 0-.257.085-.257.308zm-.495-1.067c0-.526.243-.811.756-.811.486 0 .738.285.738.785v.08h-.468v-.112c0-.223-.1-.307-.257-.307-.175 0-.274.084-.274.384v.57c.086-.178.238-.276.459-.276.364 0 .549.254.549.714v.57c0 .5-.266.786-.751.786-.486 0-.752-.286-.752-.785V37.65zM79.19 35.277h-8.147l.514.513h7.634v-.513zM79.19 41.586h-8.147l.514-.513h7.634v.513zM55.541 35.277h8.148l-.514.513H55.54v-.513zM55.541 41.586h8.148l-.514-.513H55.54v.513zM6.987 62.51l-1.406-3.404-1.407 3.404h2.813zm-2.45-6.18h2.148l4.537 10.576H8.787L7.82 64.55H3.343l-.968 2.356H0L4.537 56.33zM37.983 64.88c1.028 0 1.648-.36 1.648-1.17 0-.705-.53-1.14-1.724-1.14h-2.692v2.31h2.767zm-.62-4.23c1.028 0 1.678-.33 1.678-1.14 0-.69-.544-1.08-1.527-1.08h-2.3v2.22h2.149zm-4.417-4.245h4.915c1.21 0 2.163.33 2.768.93.484.48.726 1.065.726 1.815 0 1.185-.635 1.845-1.391 2.265 1.225.465 1.981 1.17 1.981 2.61 0 1.92-1.573 2.88-3.962 2.88h-5.037v-10.5zM54.15 62.51l-1.407-3.404-1.407 3.404h2.813zm-2.451-6.18h2.148l4.537 10.576h-2.435l-.968-2.356h-4.477l-.968 2.356h-2.374L51.7 56.33zM63.45 61.655c0-2.985 2.268-5.43 5.52-5.43 1.996 0 3.115.75 4.098 1.71l-1.39 1.59c-.817-.735-1.513-1.17-2.723-1.17-1.785 0-3.07 1.47-3.07 3.3 0 1.8 1.255 3.3 3.07 3.3 1.21 0 1.95-.48 2.783-1.23L73.22 65.3c-1.089 1.155-2.3 1.786-4.34 1.786-3.117 0-5.43-2.385-5.43-5.43zM82.052 58.535H78.83v-2.13h8.772v2.13H84.38v8.37h-2.328v-8.37zM93.893 56.405h7.985v2.055h-5.671v2.13h4.99v2.056h-4.99v2.205h5.747v2.055h-8.061v-10.5zM108.532 56.405h2.329v4.155h4.295v-4.155h2.33v10.5h-2.33V62.69h-4.295v4.216h-2.329v-10.5zM24.124 66.906h2.671l-3.631-5.392 3.441-5.109h-2.671l-2.668 4.167h-1.575v-4.167h-2.33v10.5h2.33v-4.292h1.685l2.748 4.293z" fill="#ADACAC"/><mask id="a" maskUnits="userSpaceOnUse" x="123" y="56" width="12" height="13"><path fill-rule="evenodd" clip-rule="evenodd" d="M123.778 56.405h10.954v11.988h-10.954V56.405z" fill="#fff"/></mask><g mask="url(#a)"><path fill-rule="evenodd" clip-rule="evenodd" d="M131.133 64.82h-3.882l1.146-6.33h2.736v6.33zm2.329 0v-8.415h-7.011l-1.463 8.415h-1.21v3.573h1.981l.114-1.487h6.765l.114 1.487h1.98V64.82h-1.27z" fill="#ADACAC"/></g><path fill-rule="evenodd" clip-rule="evenodd" d="M55.541 36.832h1.572v.458h-.532v2.752h-.508V37.29h-.532v-.458zM58.425 38.762l-.157.294v.986h-.509v-3.21h.509v1.398l.666-1.398h.508l-.707 1.43.707 1.78h-.522l-.495-1.28zM61.078 37.62c0-.288-.102-.366-.264-.366-.162 0-.268.087-.268.316v.261h-.467v-.238c0-.514.25-.798.75-.798.498 0 .757.294.757.807v.083c0 .344-.11.559-.356.66.255.11.356.349.356.674v.252c0 .514-.259.808-.758.808-.5 0-.758-.294-.758-.808v-.353h.48v.386c0 .229.102.316.264.316.162 0 .264-.078.264-.362v-.253c0-.298-.102-.408-.333-.408h-.125v-.458h.153c.19 0 .305-.083.305-.34v-.179z" fill="#ADACAC"/></svg>