<svg width="58" height="24" fill="none" xmlns="http://www.w3.org/2000/svg"><mask id="a" maskUnits="userSpaceOnUse" x="0" y="0" width="7" height="13"><path fill-rule="evenodd" clip-rule="evenodd" d="M0 .456h6.763v12.33H0V.455z" fill="#fff"/></mask><g mask="url(#a)"><path fill-rule="evenodd" clip-rule="evenodd" d="M6.763 4.566H4.627V3.258c0-.505-.41-.747-1.245-.747-.837 0-1.246.242-1.246.747v6.725c0 .505.409.747 1.246.747.835 0 1.245-.242 1.245-.747V7.648H3.382V5.593h3.38v4.39c0 1.868-1.12 2.803-3.38 2.803S0 11.85 0 9.983V3.258C0 1.39 1.12.456 3.382.456c2.26 0 3.38.934 3.38 2.802v1.308z" fill="#0D0803"/></g><mask id="b" maskUnits="userSpaceOnUse" x="8" y="0" width="8" height="13"><path fill-rule="evenodd" clip-rule="evenodd" d="M8.493.456h7.176v12.33H8.493V.455z" fill="#fff"/></mask><g mask="url(#b)"><path fill-rule="evenodd" clip-rule="evenodd" d="M13.403 3.258c0-.505-.434-.747-1.322-.747-.887 0-1.322.242-1.322.747v6.725c0 .505.434.747 1.322.747.888 0 1.322-.242 1.322-.747V3.258zm2.266 6.725c0 1.868-1.19 2.803-3.588 2.803s-3.588-.935-3.588-2.803V3.258c0-1.868 1.19-2.802 3.588-2.802 2.399 0 3.588.934 3.588 2.802v6.725z" fill="#0D0803"/></g><path fill-rule="evenodd" clip-rule="evenodd" d="M24 4.545h-2.21V2.727c0-.49-.424-.727-1.29-.727-.865 0-1.29.236-1.29.727v6.545c0 .492.425.728 1.29.728.866 0 1.29-.236 1.29-.728V7.454H24v1.818C24 11.091 22.84 12 20.5 12S17 11.09 17 9.272V2.727C17 .909 18.16 0 20.5 0S24 .909 24 2.727v1.818zM28 2.063v4.124h1c.667 0 1-.243 1-.75V2.814c0-.506-.333-.75-1-.75h-1zm4 3.562c0 1.07-.418 1.818-1.234 2.25L32 11.531V12h-1.984L28.75 8.25H28V12h-2V0h3c1.8 0 3 .844 3 2.625v3z" fill="#0D0803"/><mask id="c" maskUnits="userSpaceOnUse" x="33" y="0" width="8" height="13"><path fill-rule="evenodd" clip-rule="evenodd" d="M33.45.456h7.178v12.33H33.45V.455z" fill="#fff"/></mask><g mask="url(#c)"><path fill-rule="evenodd" clip-rule="evenodd" d="M38.361 3.258c0-.505-.434-.747-1.321-.747-.888 0-1.323.242-1.323.747v6.725c0 .505.435.747 1.323.747.887 0 1.321-.242 1.321-.747V3.258zm2.267 6.725c0 1.868-1.19 2.803-3.588 2.803-2.4 0-3.59-.935-3.59-2.803V3.258c0-1.868 1.19-2.802 3.59-2.802 2.398 0 3.588.934 3.588 2.802v6.725z" fill="#0D0803"/></g><path fill-rule="evenodd" clip-rule="evenodd" d="M46.2 5.236c.645.291.847.4 1.363.691.516.291.719.546 1.013.91.314.363.424.818.424 1.345v1.09C49 11.092 47.84 12 45.5 12S42 11.091 42 9.272V8h2.21v1.272c0 .492.424.728 1.29.728.866 0 1.29-.236 1.29-.728v-1.09c0-.419-.258-.582-1.29-1.091l-.737-.345-.792-.383c-.148-.09-.368-.217-.663-.417-.277-.2-.48-.4-.608-.564-.24-.346-.516-.928-.516-1.564V2.545C42.184.818 43.511 0 45.5 0c1.99 0 3.316.818 3.316 2.545V4h-2.21V2.727c0-.49-.37-.727-1.106-.727-.737 0-1.105.236-1.105.727v1.09c0 .51.24.656 1.105 1.092l.7.327z" fill="#0D0803"/><mask id="d" maskUnits="userSpaceOnUse" x="50" y="0" width="8" height="13"><path fill-rule="evenodd" clip-rule="evenodd" d="M50.298.456h7.177v12.33h-7.177V.455z" fill="#fff"/></mask><g mask="url(#d)"><path fill-rule="evenodd" clip-rule="evenodd" d="M54.605 5.836c.66.299.869.412 1.397.71.529.299.736.56 1.039.934.32.374.434.84.434 1.382v1.121c0 1.869-1.19 2.802-3.588 2.802-2.399 0-3.589-.933-3.589-2.802V8.676h2.267v1.307c0 .505.434.748 1.322.748.888 0 1.322-.243 1.322-.748v-1.12c0-.43-.264-.598-1.322-1.122l-.755-.354-.813-.393c-.15-.093-.377-.224-.68-.429a3.156 3.156 0 0 1-.623-.58c-.245-.354-.528-.952-.528-1.606V3.072c0-1.775 1.36-2.616 3.399-2.616 2.04 0 3.399.84 3.399 2.616v1.493H55.02V3.258c0-.504-.378-.747-1.133-.747s-1.133.243-1.133.747v1.12c0 .524.245.674 1.133 1.122l.718.336z" fill="#0D0803"/></g><path fill-rule="evenodd" clip-rule="evenodd" d="M42.378 18h-3.237c-.11 0-.177-.105-.12-.187L41.74 14h2.97c.227 0 .365.215.246.383L42.378 18zM35.378 18h-3.237c-.11 0-.177-.105-.12-.187L34.74 14h2.97c.227 0 .365.215.246.383L35.378 18zM49.335 18h-3.189c-.114 0-.184-.109-.124-.193l2.694-3.776a.078.078 0 0 1 .063-.031h2.93c.227 0 .367.217.247.384l-2.558 3.585a.076.076 0 0 1-.063.031M16.378 18h-3.236c-.111 0-.179-.105-.12-.187L15.74 14h2.97c.226 0 .366.215.246.383L16.378 18zM9.378 18H6.14c-.11 0-.178-.105-.12-.187L8.74 14h2.97c.227 0 .365.215.247.383L9.377 18zM22.335 18h-3.19c-.113 0-.183-.109-.123-.193l2.694-3.776A.076.076 0 0 1 21.78 14h2.93c.228 0 .367.217.247.384l-2.558 3.585a.077.077 0 0 1-.063.031M29.378 18h-3.234c-.112 0-.182-.107-.122-.19L28.739 14h2.97c.227 0 .367.217.247.385L29.378 18z" fill="#254697"/><path fill-rule="evenodd" clip-rule="evenodd" d="M4.556 21.983c0-.202-.184-.305-.556-.305h-.556v.97H4c.372 0 .556-.103.556-.304v-.361zm-1.112-1.631v.975H4c.334 0 .5-.103.5-.305v-.365c0-.202-.166-.305-.5-.305h-.556zm1.084 1.139s.472.032.472.492v.361C5 22.79 4.6 23 4 23H3v-3h1c.533 0 .944.23.944.657v.365c0 .258-.177.417-.31.45l-.106.019zM7.556 20H8v3.139c0 .584-.4.861-1 .861s-1-.277-1-.861V20h.445v3.139c0 .265.183.4.555.4.372 0 .556-.136.556-.4V20zM11 23.152c0 .575-.4.848-1 .848s-1-.273-1-.848v-.365h.444v.365c0 .26.184.394.556.394.372 0 .556-.133.556-.394v-.303c0-.14-.028-.237-.09-.303-.06-.067-.216-.165-.466-.304l-.2-.103-.189-.102c-.066-.043-.244-.152-.294-.206-.05-.055-.167-.17-.195-.267a1.56 1.56 0 0 1-.066-.413v-.364c0-.527.316-.787.944-.787.628 0 .944.26.944.787v.425H10.5v-.425c0-.224-.166-.333-.5-.333-.334 0-.5.11-.5.333v.364c0 .152.028.262.084.328.055.066.194.158.416.279.05.024.123.06.217.115l.2.109c.072.042.255.145.316.212.061.055.167.17.195.267.039.096.072.236.072.388v.303zM12.75 20.352v2.296H13V23h-1v-.352h.25v-2.296H12V20h1v.352h-.25zM17 24h-.445v-3.139c0-.265-.183-.4-.555-.4-.373 0-.556.136-.556.4V24H15v-3.139c0-.584.4-.861 1-.861s1 .277 1 .861V24zM19.125 20.352c-.419 0-.625.103-.625.304v.67h1.375v.352H18.5v.666c0 .201.206.304.625.304H20V23h-.875c-.674 0-1.125-.211-1.125-.656v-1.688c0-.445.45-.656 1.125-.656H20v.352h-.875zM23 23.152c0 .575-.4.848-1 .848s-1-.273-1-.848v-.365h.444v.365c0 .26.184.394.556.394.372 0 .555-.133.555-.394v-.303c0-.14-.028-.237-.088-.303-.062-.067-.217-.165-.467-.304l-.2-.103-.189-.102c-.067-.043-.245-.152-.294-.206-.05-.055-.167-.17-.195-.267a1.559 1.559 0 0 1-.066-.413v-.364c0-.527.316-.787.944-.787.628 0 .944.26.944.787v.425H22.5v-.425c0-.224-.166-.333-.5-.333-.334 0-.5.11-.5.333v.364c0 .152.028.262.084.328.055.066.194.158.416.279.05.024.122.06.217.115l.2.109c.072.042.255.145.316.212.061.055.167.17.195.267.038.096.072.236.072.388v.303zM26 23.152c0 .575-.4.848-1 .848s-1-.273-1-.848v-.365h.444v.365c0 .26.184.394.555.394.373 0 .556-.133.556-.394v-.303c0-.14-.028-.237-.088-.303-.062-.067-.218-.165-.468-.304l-.199-.103-.189-.102c-.067-.043-.245-.152-.294-.206-.05-.055-.167-.17-.195-.267a1.534 1.534 0 0 1-.066-.413v-.364c0-.527.316-.787.943-.787.629 0 .945.26.945.787v.425H25.5v-.425c0-.224-.166-.333-.5-.333-.334 0-.5.11-.5.333v.364c0 .152.027.262.083.328.056.066.195.158.416.279.05.024.123.06.218.115l.2.109c.071.042.255.145.316.212.061.055.167.17.195.267.038.096.072.236.072.388v.303zM31 23.152c0 .575-.4.848-1 .848s-1-.273-1-.848v-.365h.445v.365c0 .26.183.394.555.394.372 0 .556-.133.556-.394v-.303c0-.14-.028-.237-.09-.303-.06-.067-.216-.165-.466-.304l-.2-.103-.189-.102c-.066-.043-.244-.152-.294-.206-.05-.055-.167-.17-.195-.267a1.56 1.56 0 0 1-.066-.413v-.364c0-.527.316-.787.944-.787.628 0 .944.26.944.787v.425h-.443v-.425c0-.224-.168-.333-.501-.333-.334 0-.5.11-.5.333v.364c0 .152.028.262.084.328.055.066.194.158.416.279.05.024.122.06.217.115l.2.109c.072.042.256.145.316.212.061.055.167.17.195.267.039.096.072.236.072.388v.303zM33.556 20.848c0-.26-.183-.394-.556-.394-.372 0-.556.133-.556.394v2.304c0 .26.184.394.556.394.373 0 .556-.133.556-.394v-2.304zM34 23.152c0 .575-.4.848-1 .848s-1-.273-1-.848v-2.304c0-.575.4-.848 1-.848s1 .273 1 .848v2.304zM37 22.648V23h-.937c-.707 0-1.063-.202-1.063-.61V20h.5v2.39c0 .174.187.258.563.258H37zM39.556 20H40v3.139c0 .584-.4.861-1 .861s-1-.277-1-.861V20h.445v3.139c0 .265.183.4.555.4.373 0 .556-.136.556-.4V20zM43 20v.352h-.777V23h-.445v-2.648H41V20h2zM44.75 20.352v2.296H45V23h-1v-.352h.25v-2.296H44V20h1v.352h-.25zM47.556 20.848c0-.26-.184-.394-.556-.394-.372 0-.555.133-.555.394v2.304c0 .26.183.394.555.394.372 0 .556-.133.556-.394v-2.304zM48 23.152c0 .575-.4.848-1 .848s-1-.273-1-.848v-2.304c0-.575.4-.848 1-.848s1 .273 1 .848v2.304zM51 24h-.445v-3.139c0-.265-.183-.4-.555-.4-.373 0-.556.136-.556.4V24H49v-3.139c0-.584.4-.861 1-.861s1 .277 1 .861V24zM54 23.152c0 .575-.4.848-1 .848s-1-.273-1-.848v-.365h.444v.365c0 .26.183.394.556.394.372 0 .556-.133.556-.394v-.303c0-.14-.029-.237-.09-.303-.06-.067-.216-.165-.466-.304l-.2-.103-.189-.102c-.066-.043-.245-.152-.294-.206-.05-.055-.167-.17-.194-.267a1.559 1.559 0 0 1-.067-.413v-.364c0-.527.316-.787.944-.787.627 0 .944.26.944.787v.425H53.5v-.425c0-.224-.166-.333-.5-.333-.334 0-.5.11-.5.333v.364c0 .152.028.262.084.328.055.066.194.158.416.279.05.024.123.06.217.115l.2.109c.072.042.255.145.316.212.062.055.167.17.195.267.038.096.072.236.072.388v.303z" fill="#0D0803"/></svg>