<svg width="22" height="21" fill="none" xmlns="http://www.w3.org/2000/svg"><path clip-rule="evenodd" d="M15.01.656H6.99a6.458 6.458 0 0 0-4.457 1.762C1.351 3.546.687 5.076.688 6.672v7.656c0 1.596.663 3.126 1.845 4.254a6.457 6.457 0 0 0 4.457 1.762h8.02a6.458 6.458 0 0 0 4.457-1.762c1.182-1.128 1.846-2.658 1.846-4.254V6.672c0-1.596-.664-3.126-1.846-4.254A6.458 6.458 0 0 0 15.01.656z" stroke="#0D2A72"/><path fill-rule="evenodd" clip-rule="evenodd" d="M6.722 0h8.556C18.99 0 22 2.873 22 6.417v8.166c0 1.702-.708 3.334-1.969 4.538-1.26 1.203-2.97 1.879-4.753 1.879H6.722C3.01 21 0 18.127 0 14.583V6.417C0 2.873 3.01 0 6.722 0zm13.445 6.417c-.003-2.576-2.19-4.664-4.89-4.667H6.723c-2.699.003-4.886 2.09-4.889 4.667v8.166c.003 2.577 2.19 4.664 4.89 4.667h8.555c2.699-.003 4.886-2.09 4.889-4.667V6.417z" fill="#fff"/><path fill-rule="evenodd" clip-rule="evenodd" d="M5.5 10.5c0-2.9 2.462-5.25 5.5-5.25s5.5 2.35 5.5 5.25-2.462 5.25-5.5 5.25-5.5-2.35-5.5-5.25zm9.167 0C14.667 8.567 13.025 7 11 7c-2.024.002-3.664 1.568-3.667 3.5 0 1.933 1.642 3.5 3.667 3.5s3.667-1.567 3.667-3.5zM17.188 5.906c.759 0 1.375-.587 1.375-1.312 0-.725-.616-1.313-1.375-1.313-.76 0-1.375.588-1.375 1.313s.615 1.312 1.374 1.312z" fill="#fff"/></svg>