<svg width="46" height="57" fill="none" xmlns="http://www.w3.org/2000/svg"><path fill-rule="evenodd" clip-rule="evenodd" d="M46 22.757C46 10.187 35.705 0 23 0S0 10.186 0 22.757c0 2.167.438 4.334.876 6.502C4.162 42.262 23 57 23 57s21.248-16.471 22.562-30.125c.219-1.518.438-2.818.438-4.118z" fill="#0A5FB6"/><path fill-rule="evenodd" clip-rule="evenodd" d="M28.046 21.675l1.173-.177-1.199 4.58h-4.227v-7.74l1.237.654L23 13l-2.03 5.992 1.237-.655v7.74H17.98l-1.2-4.58 1.174.178L14 17.143l2.76 10.544h5.447v3.888l-1.186 1.204 1.186 1.204V39l1.586-1.611v-3.406l1.186-1.204-1.186-1.204v-3.888h5.446L32 17.143l-3.954 4.532z" fill="#fff"/></svg>